# xmcd
#
# Track frame offsets:
# 150
# 17700
# 30661
# 48060
# 64933
# 84930
# 103605
# 127572
# 142263
# 166793
# 181991
# 200112
# 220156
# 233746
#
# Disc length: 3489 seconds
#
#
# Revision: 0
# Processed by: cddbd v1.4PL0 Copyright (c) Steve Scherf et al.
# Submitted via: FreeRIP 2.40 
#
DISCID=b50d9f0e
DTITLE=The Crawlin' Kingsnake Blues Band - Stomp My Feet
DYEAR=1997
DGENRE=Blues
TTITLE0=Both Day and Night
TTITLE1=Let Me Stay (With You Tonight)
TTITLE2=Mary Had A Li'l Lamb
TTITLE3=Rattlesnake In My Shoes
TTITLE4=(I Done Left My) 6-String Black Angel
TTITLE5=Spanish Moss
TTITLE6=Hey!
TTITLE7=Heads and Tails
TTITLE8=Cold Winter Night
TTITLE9=Luv Doctor
TTITLE10=No Handle
TTITLE11=Help Me Trough The Day
TTITLE12=Half This, Half That
TTITLE13=Scratchmatch
EXTD=
EXTT0=
EXTT1=
EXTT2=
EXTT3=
EXTT4=
EXTT5=
EXTT6=
EXTT7=
EXTT8=
EXTT9=
EXTT10=
EXTT11=
EXTT12=
EXTT13=
PLAYORDER=
